<?xml version="1.0" encoding="UTF-8" standalone="no"?>
<!DOCTYPE svg PUBLIC "-//W3C//DTD SVG 1.1//EN" "http://www.w3.org/Graphics/SVG/1.1/DTD/svg11.dtd">
<svg width="100%" height="100%" viewBox="0 0 152 206" version="1.1" xmlns="http://www.w3.org/2000/svg" xmlns:xlink="http://www.w3.org/1999/xlink" xml:space="preserve" xmlns:serif="http://www.serif.com/" style="fill-rule:evenodd;clip-rule:evenodd;stroke-linejoin:round;stroke-miterlimit:2;">
    <g transform="matrix(1,0,0,1,-4.444018,0)">
        <g transform="matrix(0.454358,0,0,0.455197,0,0)">
            <path d="M117.151,349.592C117.151,349.592 99.886,359.641 129.452,363.032C165.276,367.122 183.582,366.533 223.048,359.073C223.048,359.073 233.445,365.577 247.94,371.21C159.439,409.127 47.644,369.013 117.151,349.592Z" style="fill:rgb(88,121,147);"/>
        </g>
        <g transform="matrix(0.454358,0,0,0.455197,0,0)">
            <path d="M106.331,300.104C106.331,300.104 86.964,314.443 116.552,317.501C154.823,321.452 185.035,321.776 237.344,311.709C237.344,311.709 244.562,319.041 255.929,323.048C148.943,354.342 29.782,325.51 106.331,300.104Z" style="fill:rgb(88,121,147);"/>
        </g>
        <g transform="matrix(0.454358,0,0,0.455197,0,0)">
            <path d="M197.494,216.145C219.312,241.26 191.773,263.842 191.773,263.842C191.773,263.842 247.14,235.265 221.718,199.462C197.966,166.089 179.756,149.511 278.341,92.338C278.342,92.338 123.587,130.979 197.494,216.145Z" style="fill:rgb(231,111,0);"/>
        </g>
        <g transform="matrix(0.454358,0,0,0.455197,0,0)">
            <path d="M314.542,386.202C314.542,386.202 327.323,396.738 300.465,404.886C249.394,420.355 87.861,425.021 42.995,405.505C26.878,398.485 57.116,388.755 66.63,386.7C76.55,384.554 82.214,384.946 82.214,384.946C64.277,372.315 -33.721,409.753 32.442,420.49C212.871,449.736 361.337,407.317 314.542,386.202Z" style="fill:rgb(88,121,147);"/>
        </g>
        <g transform="matrix(0.454358,0,0,0.455197,0,0)">
            <path d="M125.46,248.822C125.46,248.822 43.305,268.341 96.368,275.435C118.78,278.434 163.431,277.744 205.053,274.252C239.059,271.398 273.186,265.294 273.186,265.294C273.186,265.294 261.204,270.434 252.529,276.354C169.085,298.301 7.917,288.08 54.322,265.642C93.549,246.665 125.46,248.822 125.46,248.822Z" style="fill:rgb(88,121,147);"/>
        </g>
        <g transform="matrix(0.454358,0,0,0.455197,0,0)">
            <path d="M272.846,331.198C357.664,287.135 318.443,244.786 291.069,250.49C284.375,251.887 281.372,253.097 281.372,253.097C281.372,253.097 283.866,249.19 288.615,247.509C342.77,228.479 384.409,303.655 271.151,333.428C271.15,333.428 272.453,332.248 272.846,331.198Z" style="fill:rgb(88,121,147);"/>
        </g>
        <g transform="matrix(0.454358,0,0,0.455197,0,0)">
            <path d="M221.719,0C221.719,0 268.682,46.99 177.162,119.227C103.769,177.196 160.428,210.236 177.136,248.005C134.291,209.352 102.865,175.321 123.944,143.653C154.898,97.174 240.663,74.632 221.719,0Z" style="fill:rgb(231,111,0);"/>
        </g>
        <g transform="matrix(0.454358,0,0,0.455197,0,0)">
            <path d="M133.799,450.637C215.196,455.841 340.225,447.741 343.184,409.222C343.184,409.222 337.496,423.824 275.908,435.41C206.427,448.491 120.711,446.968 69.892,438.577C69.892,438.577 80.303,447.194 133.799,450.637Z" style="fill:rgb(88,121,147);"/>
        </g>
    </g>
</svg>
